<svg xmlns="http://www.w3.org/2000/svg" viewBox="0 0 64 64" shape-rendering="crispEdges">
  <!-- Background -->
  <rect width="64" height="64" fill="#1a0a2e"/>
  <!-- Body -->
  <rect x="20" y="36" width="24" height="20" fill="#6c5ce7"/>
  <!-- Shirt detail -->
  <rect x="24" y="40" width="6" height="8" fill="#a29bfe"/>
  <rect x="34" y="40" width="6" height="8" fill="#a29bfe"/>
  <!-- Neck -->
  <rect x="28" y="32" width="8" height="6" fill="#d4a0a0"/>
  <!-- Head -->
  <rect x="20" y="16" width="24" height="18" fill="#d4a0a0"/>
  <!-- Hair -->
  <rect x="18" y="14" width="28" height="6" fill="#2d3436"/>
  <rect x="18" y="14" width="4" height="10" fill="#2d3436"/>
  <rect x="42" y="14" width="4" height="10" fill="#2d3436"/>
  <!-- Eyes -->
  <rect x="24" y="22" width="4" height="4" fill="#2d3436"/>
  <rect x="36" y="22" width="4" height="4" fill="#2d3436"/>
  <!-- Eye shine -->
  <rect x="25" y="23" width="1" height="1" fill="#fff"/>
  <rect x="37" y="23" width="1" height="1" fill="#fff"/>
  <!-- Smile -->
  <rect x="26" y="28" width="12" height="2" fill="#2d3436"/>
  <rect x="24" y="26" width="2" height="2" fill="#2d3436"/>
  <rect x="38" y="26" width="2" height="2" fill="#2d3436"/>
  <!-- Arms -->
  <rect x="10" y="36" width="10" height="4" fill="#6c5ce7"/>
  <rect x="44" y="36" width="10" height="4" fill="#6c5ce7"/>
  <!-- Hands -->
  <rect x="8" y="38" width="4" height="6" fill="#d4a0a0"/>
  <rect x="52" y="38" width="4" height="6" fill="#d4a0a0"/>
  <!-- Legs -->
  <rect x="22" y="56" width="8" height="8" fill="#2d3436"/>
  <rect x="34" y="56" width="8" height="8" fill="#2d3436"/>
  <!-- Neon glow accent -->
  <rect x="20" y="14" width="24" height="2" fill="#a29bfe" opacity="0.6"/>
</svg>
