<svg xmlns="http://www.w3.org/2000/svg" viewBox="0 0 64 64" shape-rendering="crispEdges">
  <!-- Background -->
  <rect width="64" height="64" fill="#1a1500"/>
  <!-- Body -->
  <rect x="20" y="36" width="24" height="20" fill="#fdcb6e"/>
  <!-- Jacket stripes -->
  <rect x="20" y="36" width="24" height="3" fill="#e6b85a"/>
  <rect x="20" y="45" width="24" height="3" fill="#e6b85a"/>
  <!-- Neck -->
  <rect x="28" y="32" width="8" height="6" fill="#ffe0a0"/>
  <!-- Head -->
  <rect x="20" y="14" width="24" height="20" fill="#ffe0a0"/>
  <!-- Messy hair -->
  <rect x="18" y="10" width="28" height="8" fill="#e67e22"/>
  <rect x="16" y="12" width="4" height="8" fill="#e67e22"/>
  <rect x="44" y="12" width="4" height="8" fill="#e67e22"/>
  <rect x="24" y="6" width="6" height="6" fill="#e67e22"/>
  <rect x="36" y="8" width="4" height="4" fill="#e67e22"/>
  <!-- Eyes (wide/wild) -->
  <rect x="23" y="20" width="6" height="5" fill="#2d3436"/>
  <rect x="35" y="20" width="6" height="5" fill="#2d3436"/>
  <rect x="24" y="21" width="2" height="2" fill="#fdcb6e"/>
  <rect x="36" y="21" width="2" height="2" fill="#fdcb6e"/>
  <rect x="24" y="21" width="1" height="1" fill="#fff"/>
  <rect x="36" y="21" width="1" height="1" fill="#fff"/>
  <!-- Grin (chaotic) -->
  <rect x="24" y="28" width="16" height="2" fill="#2d3436"/>
  <rect x="22" y="26" width="2" height="4" fill="#2d3436"/>
  <rect x="40" y="26" width="2" height="4" fill="#2d3436"/>
  <rect x="27" y="28" width="2" height="3" fill="#ffe0a0"/>
  <rect x="35" y="28" width="2" height="3" fill="#ffe0a0"/>
  <!-- Arms (outstretched - chaotic energy) -->
  <rect x="6" y="34" width="14" height="4" fill="#fdcb6e"/>
  <rect x="44" y="34" width="14" height="4" fill="#fdcb6e"/>
  <!-- Hands -->
  <rect x="4" y="34" width="4" height="8" fill="#ffe0a0"/>
  <rect x="56" y="34" width="4" height="8" fill="#ffe0a0"/>
  <!-- Legs -->
  <rect x="22" y="56" width="8" height="8" fill="#e67e22"/>
  <rect x="34" y="56" width="8" height="8" fill="#e67e22"/>
</svg>
