<svg xmlns="http://www.w3.org/2000/svg" viewBox="0 0 64 64" shape-rendering="crispEdges">
  <!-- Background -->
  <rect width="64" height="64" fill="#001a0f"/>
  <!-- Body + hoodie -->
  <rect x="18" y="34" width="28" height="22" fill="#00b894"/>
  <!-- Hoodie pocket -->
  <rect x="26" y="46" width="12" height="8" fill="#00a381"/>
  <!-- Hood -->
  <rect x="16" y="14" width="32" height="10" fill="#00b894"/>
  <rect x="14" y="18" width="4" height="6" fill="#00b894"/>
  <rect x="46" y="18" width="4" height="6" fill="#00b894"/>
  <!-- Neck -->
  <rect x="28" y="30" width="8" height="6" fill="#c8a06e"/>
  <!-- Head -->
  <rect x="20" y="14" width="24" height="18" fill="#c8a06e"/>
  <!-- Hair - curly/fluffy -->
  <rect x="18" y="10" width="28" height="6" fill="#2d3436"/>
  <rect x="16" y="12" width="4" height="6" fill="#2d3436"/>
  <rect x="44" y="12" width="4" height="6" fill="#2d3436"/>
  <rect x="20" y="8" width="4" height="4" fill="#2d3436"/>
  <rect x="28" y="6" width="4" height="4" fill="#2d3436"/>
  <rect x="36" y="8" width="4" height="4" fill="#2d3436"/>
  <!-- Eyes (friendly) -->
  <rect x="24" y="20" width="4" height="5" fill="#2d3436"/>
  <rect x="36" y="20" width="4" height="5" fill="#2d3436"/>
  <rect x="25" y="21" width="2" height="2" fill="#74b9ff"/>
  <rect x="37" y="21" width="2" height="2" fill="#74b9ff"/>
  <!-- Shine -->
  <rect x="25" y="21" width="1" height="1" fill="#fff"/>
  <rect x="37" y="21" width="1" height="1" fill="#fff"/>
  <!-- Big smile -->
  <rect x="24" y="28" width="16" height="2" fill="#2d3436"/>
  <rect x="22" y="26" width="2" height="4" fill="#2d3436"/>
  <rect x="40" y="26" width="2" height="4" fill="#2d3436"/>
  <!-- Arms -->
  <rect x="8" y="36" width="10" height="4" fill="#00b894"/>
  <rect x="46" y="36" width="10" height="4" fill="#00b894"/>
  <!-- Hands -->
  <rect x="6" y="38" width="4" height="6" fill="#c8a06e"/>
  <rect x="54" y="38" width="4" height="6" fill="#c8a06e"/>
  <!-- Legs -->
  <rect x="22" y="56" width="8" height="8" fill="#2d3436"/>
  <rect x="34" y="56" width="8" height="8" fill="#2d3436"/>
</svg>
