<svg xmlns="http://www.w3.org/2000/svg" viewBox="0 0 36 24">
  <rect width="36" height="24" fill="#ffffff"/>
  <g transform="translate(18 12)">
    <path d="M0-4.2A4.2 4.2 0 0 1 3.64 2.1H0A2.1 2.1 0 0 0 0-2.1Z" fill="#c60c30"/>
    <path d="M0 4.2A4.2 4.2 0 0 1-3.64-2.1H0A2.1 2.1 0 0 0 0 2.1Z" fill="#003478"/>
    <path d="M0-2.1A2.1 2.1 0 0 0 0 2.1 2.1 2.1 0 0 1 0-2.1Z" fill="#003478"/>
    <path d="M0 2.1A2.1 2.1 0 0 0 0-2.1 2.1 2.1 0 0 1 0 2.1Z" fill="#c60c30"/>
  </g>
  <g fill="#000000" transform="translate(7.2 6.2) rotate(-28)">
    <rect width="5.2" height="0.9"/>
    <rect y="1.4" width="5.2" height="0.9"/>
    <rect y="2.8" width="5.2" height="0.9"/>
  </g>
  <g fill="#000000" transform="translate(24.2 5.7) rotate(28)">
    <rect width="5.2" height="0.9"/>
    <rect y="2.8" width="5.2" height="0.9"/>
  </g>
  <g fill="#000000" transform="translate(7 17.6) rotate(28)">
    <rect width="5.2" height="0.9"/>
    <rect y="1.4" width="2.2" height="0.9"/>
    <rect x="3" y="1.4" width="2.2" height="0.9"/>
    <rect y="2.8" width="5.2" height="0.9"/>
  </g>
  <g fill="#000000" transform="translate(24.4 18.2) rotate(-28)">
    <rect width="2.2" height="0.9"/>
    <rect x="3" width="2.2" height="0.9"/>
    <rect y="1.4" width="2.2" height="0.9"/>
    <rect x="3" y="1.4" width="2.2" height="0.9"/>
    <rect width="5.2" height="0.9" opacity="0"/>
    <rect y="2.8" width="2.2" height="0.9"/>
    <rect x="3" y="2.8" width="2.2" height="0.9"/>
  </g>
</svg>
