<svg xmlns="http://www.w3.org/2000/svg" viewBox="0 0 900 600">
  <rect width="900" height="600" fill="#ffffff"/>
  <g transform="translate(450 300)">
    <path d="M0-120A120 120 0 0 1 103.923 60H0A60 60 0 0 0 0-60Z" fill="#cd2e3a"/>
    <path d="M0 120A120 120 0 0 1-103.923-60H0A60 60 0 0 0 0 60Z" fill="#0047a0"/>
    <path d="M0-60A60 60 0 0 0 0 60 60 60 0 0 1 0-60Z" fill="#0047a0"/>
    <path d="M0 60A60 60 0 0 0 0-60 60 60 0 0 1 0 60Z" fill="#cd2e3a"/>
  </g>
  <g fill="#000000" transform="translate(170 120) rotate(-56.31)">
    <rect width="150" height="24" rx="4"/>
    <rect y="40" width="150" height="24" rx="4"/>
    <rect y="80" width="150" height="24" rx="4"/>
  </g>
  <g fill="#000000" transform="translate(602 103) rotate(56.31)">
    <rect width="150" height="24" rx="4"/>
    <rect y="80" width="150" height="24" rx="4"/>
  </g>
  <g fill="#000000" transform="translate(161 398) rotate(56.31)">
    <rect width="150" height="24" rx="4"/>
    <rect y="40" width="63" height="24" rx="4"/>
    <rect x="87" y="40" width="63" height="24" rx="4"/>
    <rect y="80" width="150" height="24" rx="4"/>
  </g>
  <g fill="#000000" transform="translate(611 381) rotate(-56.31)">
    <rect width="63" height="24" rx="4"/>
    <rect x="87" width="63" height="24" rx="4"/>
    <rect width="150" height="24" rx="4" opacity="0"/>
    <rect y="40" width="63" height="24" rx="4"/>
    <rect x="87" y="40" width="63" height="24" rx="4"/>
    <rect y="80" width="63" height="24" rx="4"/>
    <rect x="87" y="80" width="63" height="24" rx="4"/>
  </g>
</svg>
